<svg viewBox="-1273.615 -982.44 2970.001 2551.37" xmlns="http://www.w3.org/2000/svg">
	<path
		class="svelte"
		d="M275.4 46.8C242.7-.3 177.6-14.1 130.8 15.6L48.3 68.4C25.8 82.5 10.2 105.6 5.7 131.7 1.8 153.6 5.1 176.1 15.6 195.6 8.4 206.4 3.6 218.4 1.5 231-3.3 257.7 3 285.3 18.6 307.2 51.6 354.3 116.4 368.1 163.2 338.4L245.7 285.9C268.2 271.8 283.8 248.7 288.3 222.6 292.2 200.7 288.9 178.2 278.4 158.7 285.6 147.9 290.4 135.9 292.5 123.3 297.6 96.3 291.3 68.7 275.4 46.8M122.7 311.7C96 318.6 68.1 308.1 52.5 285.6 42.9 272.4 39.3 255.9 42 239.7 42.6 237 43.2 234.6 43.8 231.9L45.3 227.1 49.5 230.1C59.4 237.3 70.2 242.7 81.9 246.3L84.9 247.2 84.6 250.2C84.3 254.4 85.5 258.9 87.9 262.5 92.7 269.4 101.1 272.7 109.2 270.6 111 270 112.8 269.4 114.3 268.5L196.5 216C200.7 213.3 203.4 209.4 204.3 204.6 205.2 199.8 204 194.7 201.3 190.8 196.5 183.9 188.1 180.9 180 183 178.2 183.6 176.4 184.2 174.9 185.1L143.4 205.2C138.3 208.5 132.6 210.9 126.6 212.4 99.9 219.3 72 208.8 56.4 186.3 47.1 173.1 43.2 156.6 46.2 140.4 48.9 124.8 58.5 110.7 72 102.3L154.5 49.8C159.6 46.5 165.3 44.1 171.3 42.3 198 35.4 225.9 45.9 241.5 68.4 251.1 81.6 254.7 98.1 252 114.3 251.4 117 250.8 119.4 249.9 122.1L248.4 126.9 244.2 123.9C234.3 116.7 223.5 111.3 211.8 107.7L208.8 106.8 209.1 103.8C209.4 99.6 208.2 95.1 205.8 91.5 201 84.6 192.6 81.6 184.5 83.7 182.7 84.3 180.9 84.9 179.4 85.8L97.2 138.3C93 141 90.3 144.9 89.4 149.7S89.7 159.6 92.4 163.5C97.2 170.4 105.6 173.4 113.7 171.3 115.5 170.7 117.3 170.1 118.8 169.2L150.3 149.1C155.4 145.8 161.1 143.4 167.1 141.6 193.8 134.7 221.7 145.2 237.3 167.7 246.9 180.9 250.5 197.4 247.8 213.6 245.1 229.2 235.5 243.3 222 251.7L139.5 304.2C134.4 307.5 128.7 309.9 122.7 311.7"
	/>

	<g class="mate">
		<path
			d="M 1036.495 555.207 C 1041.995 557.03 1041.712 563.397 1041.712 563.397 L 1043.637 917.42 C 1039.239 919.206 1012.616 897.705 1008.724 876.352 L 1007.886 563.218 C 1007.886 563.218 1007.157 557.287 1014.521 555.059 C 1019.389 553.586 1030.063 553.075 1036.495 555.207 Z M 1293.857 -60 C 1298.598 -61.036 1304.286 -59.287 1307.857 -56 C 1321.749 -43.21 1325.899 -21.576 1327.857 -3 C 1332.155 37.775 1332.359 112.631 1327.455 170.134 C 1324.142 208.987 1317.806 278.87 1290.792 282.423 L 1293.857 -60 Z M 285.597 -468.2 C 267.786 -463.416 249.939 -453.458 237.717 -440.48 C 222.457 -426.34 211.269 -404.316 209.472 -383.062 C 207.057 -354.499 217.983 -324.435 233.937 -300.62 C 246.904 -281.264 268.435 -268.849 288.337 -256.738 C 320.949 -236.894 356.673 -221.829 393.164 -210.614 C 455.958 -191.316 519.726 -181.117 586.992 -174.977 C 617.195 -172.22 754.585 -165.859 768.177 -169.58 L 770.697 364.66 C 771.473 370.34 775.694 372.488 778.105 380.944 C 780.716 390.1 779.688 393.521 780.573 399.94 L 778.257 936.7 C 778.168 948.634 782.15 972.637 787.446 988.676 C 791.466 1000.851 811.017 1019.86 811.017 1019.86 L 829.917 1036.24 L 1037.817 1176.1 L 1039.62 1438.127 C 1039.62 1438.127 1041.267 1534.584 1147.179 1535.458 C 1267.737 1536.453 1261.869 1435.845 1261.869 1435.845 L 1263.344 1306.319 L 1409.752 1404.16 C 1409.752 1404.16 1499.127 1467.859 1558.372 1383.704 C 1617.175 1300.177 1534.899 1241.118 1534.899 1241.118 L 1267.137 1050.1 L 1268.903 422.15 C 1275.031 437.682 1281.437 440.521 1285.387 444.172 C 1291.586 449.902 1310.931 457.884 1318.797 459.16 C 1331.234 461.178 1344.224 461.543 1356.597 459.16 C 1369.923 456.594 1383.402 451.995 1394.397 444.04 C 1405.507 436.002 1413.445 424.077 1420.857 412.54 C 1440.963 381.244 1486.556 268.366 1493.981 245.711 C 1505.964 209.151 1513.586 173.143 1518.512 135.063 C 1522.939 100.837 1522.153 79.472 1521.657 52.18 C 1521.212 27.694 1507.76 -50.289 1491.417 -99.02 C 1482.816 -124.666 1469.863 -148.791 1456.137 -172.1 C 1438.398 -202.223 1418.763 -231.546 1395.657 -257.78 C 1368.936 -288.12 1337.614 -314.234 1306.197 -339.68 C 1272.506 -366.968 1237.5 -392.917 1200.357 -415.28 C 1179.438 -427.875 1157.483 -438.909 1134.837 -448.04 C 1121.778 -453.306 1109.423 -457.678 1096.274 -460.991 C 1082.475 -464.468 1068.138 -466.994 1053.842 -468.2 C 1037.219 -469.602 1020.405 -469.768 1003.797 -468.2 C 985.919 -466.513 968.083 -463.26 950.877 -458.12 C 925.617 -450.574 901.296 -439.83 877.797 -427.88 C 862.002 -419.848 831.597 -400.967 807.237 -390.08 C 789.284 -382.057 773.413 -373.868 754.628 -368.377 C 739.678 -364.007 722.688 -361.268 706.437 -359.84 C 659.578 -355.722 612.209 -356.112 565.317 -359.84 C 544.117 -361.525 477.072 -371.069 436.249 -387.481 C 422.933 -392.834 410.46 -400.705 399.623 -410.115 C 387.941 -420.258 382.219 -436.388 369.927 -445.783 C 355.644 -456.699 338.442 -464.376 320.877 -468.2 C 309.386 -470.701 296.954 -471.251 285.597 -468.2 Z"
		/>
		<ellipse cx="1027.361" cy="-742.561" rx="255" ry="255" />
	</g>

	<style type="text/css">
		:root {
			--color-svelte: #ff3e00;
			--color-mate: #0097fc;
			--color-outline: #000000;
		}

		.svelte {
			fill: var(--color-svelte);
			scale: 5;
			transform: translate(-120px, -50px);
			stroke: var(--color-outline);
			stroke-width: 1px;
		}

		.mate {
			fill: var(--color-mate);
			stroke: var(--color-outline);
			stroke-width: 4px;
		}
	</style>
</svg>
